<svg width="18" height="18" viewBox="0 0 18 18" fill="none" xmlns="http://www.w3.org/2000/svg">
<path d="M6.75 16C7.44036 16 8 15.4404 8 14.75C8 14.0596 7.44036 13.5 6.75 13.5C6.05964 13.5 5.5 14.0596 5.5 14.75C5.5 15.4404 6.05964 16 6.75 16Z" fill="#272727"/>
<path d="M13.25 16C13.9404 16 14.5 15.4404 14.5 14.75C14.5 14.0596 13.9404 13.5 13.25 13.5C12.5596 13.5 12 14.0596 12 14.75C12 15.4404 12.5596 16 13.25 16Z" fill="#272727"/>
<path d="M16.55 3.19507C16.5034 3.13457 16.4436 3.08553 16.3751 3.05173C16.3067 3.01793 16.2314 3.00026 16.155 3.00007H4.60499L4.37999 2.28507C4.35528 2.2083 4.31236 2.13865 4.2549 2.08206C4.19743 2.02547 4.12713 1.98361 4.04999 1.96007L1.99999 1.33007C1.93696 1.3107 1.87073 1.30394 1.80508 1.31017C1.73943 1.31639 1.67565 1.33549 1.61738 1.36636C1.4997 1.42872 1.41161 1.53527 1.37249 1.66257C1.33337 1.78988 1.34643 1.92751 1.40878 2.04519C1.47114 2.16287 1.57769 2.25095 1.70499 2.29007L3.49999 2.84007L5.78999 10.0751L4.97499 10.7451L4.90999 10.8101C4.70844 11.0435 4.59425 11.3396 4.58696 11.6479C4.57966 11.9562 4.67971 12.2574 4.86999 12.5001C5.00627 12.6658 5.17945 12.7973 5.37566 12.8842C5.57188 12.971 5.78569 13.0107 5.99999 13.0001H14.345C14.4776 13.0001 14.6048 12.9474 14.6985 12.8536C14.7923 12.7599 14.845 12.6327 14.845 12.5001C14.845 12.3675 14.7923 12.2403 14.6985 12.1465C14.6048 12.0528 14.4776 12.0001 14.345 12.0001H5.91999C5.86242 11.9981 5.80632 11.9813 5.75712 11.9514C5.70793 11.9214 5.66729 11.8792 5.63914 11.829C5.61099 11.7787 5.59628 11.722 5.59643 11.6644C5.59658 11.6068 5.61159 11.5502 5.63999 11.5001L6.84499 10.5001H14.56C14.6742 10.5034 14.7861 10.4675 14.8771 10.3984C14.9681 10.3292 15.0326 10.231 15.06 10.1201L16.66 3.62007C16.6752 3.54553 16.6732 3.46851 16.6541 3.39486C16.6351 3.32121 16.5995 3.25288 16.55 3.19507Z" fill="#272727"/>
</svg>
